<mxfile host="Electron" modified="2024-07-14T15:36:21.626Z" agent="Mozilla/5.0 (Windows NT 10.0; Win64; x64) AppleWebKit/537.36 (KHTML, like Gecko) draw.io/24.6.4 Chrome/124.0.6367.207 Electron/30.0.6 Safari/537.36" etag="dvdMif7K1xOWSWu3YKGq" version="24.6.4" type="device">
  <diagram name="Страница — 1" id="3HgecvVkTl3bmF_rbsyp">
    <mxGraphModel dx="1213" dy="1018" grid="1" gridSize="10" guides="1" tooltips="1" connect="1" arrows="1" fold="1" page="1" pageScale="1" pageWidth="827" pageHeight="1169" math="0" shadow="0">
      <root>
        <mxCell id="0" />
        <mxCell id="1" parent="0" />
        <mxCell id="YQ34B9OaqeDMS3K-ixbD-26" value="&lt;span style=&quot;font-size: 16px; text-wrap: nowrap;&quot;&gt;User&lt;/span&gt;" style="swimlane;fontStyle=0;childLayout=stackLayout;horizontal=1;startSize=26;fillColor=#dae8fc;horizontalStack=0;resizeParent=1;resizeParentMax=0;resizeLast=0;collapsible=1;marginBottom=0;whiteSpace=wrap;html=1;strokeColor=#6c8ebf;" parent="1" vertex="1">
          <mxGeometry x="80" y="40" width="140" height="380" as="geometry" />
        </mxCell>
        <mxCell id="YQ34B9OaqeDMS3K-ixbD-27" value="&lt;span style=&quot;text-wrap: nowrap;&quot;&gt;Settings&lt;/span&gt;" style="text;strokeColor=default;fillColor=none;align=center;verticalAlign=top;spacingLeft=4;spacingRight=4;overflow=hidden;rotatable=0;points=[[0,0.5],[1,0.5]];portConstraint=eastwest;whiteSpace=wrap;html=1;" parent="YQ34B9OaqeDMS3K-ixbD-26" vertex="1">
          <mxGeometry y="26" width="140" height="26" as="geometry" />
        </mxCell>
        <mxCell id="YQ34B9OaqeDMS3K-ixbD-28" value="&lt;span style=&quot;text-align: center; text-wrap: nowrap;&quot;&gt;id: int&lt;/span&gt;" style="text;strokeColor=none;fillColor=none;align=left;verticalAlign=top;spacingLeft=4;spacingRight=4;overflow=hidden;rotatable=0;points=[[0,0.5],[1,0.5]];portConstraint=eastwest;whiteSpace=wrap;html=1;" parent="YQ34B9OaqeDMS3K-ixbD-26" vertex="1">
          <mxGeometry y="52" width="140" height="26" as="geometry" />
        </mxCell>
        <mxCell id="YQ34B9OaqeDMS3K-ixbD-29" value="&lt;span style=&quot;text-align: center; text-wrap: nowrap;&quot;&gt;name: str&lt;/span&gt;" style="text;strokeColor=none;fillColor=none;align=left;verticalAlign=top;spacingLeft=4;spacingRight=4;overflow=hidden;rotatable=0;points=[[0,0.5],[1,0.5]];portConstraint=eastwest;whiteSpace=wrap;html=1;" parent="YQ34B9OaqeDMS3K-ixbD-26" vertex="1">
          <mxGeometry y="78" width="140" height="26" as="geometry" />
        </mxCell>
        <mxCell id="YQ34B9OaqeDMS3K-ixbD-39" value="&lt;span style=&quot;text-align: center; text-wrap: nowrap;&quot;&gt;surname: str&lt;/span&gt;" style="text;strokeColor=none;fillColor=none;align=left;verticalAlign=top;spacingLeft=4;spacingRight=4;overflow=hidden;rotatable=0;points=[[0,0.5],[1,0.5]];portConstraint=eastwest;whiteSpace=wrap;html=1;" parent="YQ34B9OaqeDMS3K-ixbD-26" vertex="1">
          <mxGeometry y="104" width="140" height="26" as="geometry" />
        </mxCell>
        <mxCell id="YQ34B9OaqeDMS3K-ixbD-40" value="&lt;span style=&quot;text-align: center; text-wrap: nowrap;&quot;&gt;email: str&lt;/span&gt;" style="text;strokeColor=none;fillColor=none;align=left;verticalAlign=top;spacingLeft=4;spacingRight=4;overflow=hidden;rotatable=0;points=[[0,0.5],[1,0.5]];portConstraint=eastwest;whiteSpace=wrap;html=1;" parent="YQ34B9OaqeDMS3K-ixbD-26" vertex="1">
          <mxGeometry y="130" width="140" height="26" as="geometry" />
        </mxCell>
        <mxCell id="YQ34B9OaqeDMS3K-ixbD-41" value="&lt;span style=&quot;text-align: center; text-wrap: nowrap;&quot;&gt;login: str&lt;/span&gt;" style="text;strokeColor=none;fillColor=none;align=left;verticalAlign=top;spacingLeft=4;spacingRight=4;overflow=hidden;rotatable=0;points=[[0,0.5],[1,0.5]];portConstraint=eastwest;whiteSpace=wrap;html=1;" parent="YQ34B9OaqeDMS3K-ixbD-26" vertex="1">
          <mxGeometry y="156" width="140" height="26" as="geometry" />
        </mxCell>
        <mxCell id="YQ34B9OaqeDMS3K-ixbD-42" value="&lt;span style=&quot;text-align: center; text-wrap: nowrap;&quot;&gt;age: int&lt;/span&gt;" style="text;strokeColor=none;fillColor=none;align=left;verticalAlign=top;spacingLeft=4;spacingRight=4;overflow=hidden;rotatable=0;points=[[0,0.5],[1,0.5]];portConstraint=eastwest;whiteSpace=wrap;html=1;" parent="YQ34B9OaqeDMS3K-ixbD-26" vertex="1">
          <mxGeometry y="182" width="140" height="26" as="geometry" />
        </mxCell>
        <mxCell id="YQ34B9OaqeDMS3K-ixbD-43" value="&lt;span style=&quot;text-align: center; text-wrap: nowrap;&quot;&gt;role: str&lt;/span&gt;" style="text;strokeColor=none;fillColor=none;align=left;verticalAlign=top;spacingLeft=4;spacingRight=4;overflow=hidden;rotatable=0;points=[[0,0.5],[1,0.5]];portConstraint=eastwest;whiteSpace=wrap;html=1;" parent="YQ34B9OaqeDMS3K-ixbD-26" vertex="1">
          <mxGeometry y="208" width="140" height="26" as="geometry" />
        </mxCell>
        <mxCell id="YQ34B9OaqeDMS3K-ixbD-44" value="&lt;span style=&quot;text-align: center; text-wrap: nowrap;&quot;&gt;password: str&lt;/span&gt;" style="text;strokeColor=none;fillColor=none;align=left;verticalAlign=top;spacingLeft=4;spacingRight=4;overflow=hidden;rotatable=0;points=[[0,0.5],[1,0.5]];portConstraint=eastwest;whiteSpace=wrap;html=1;" parent="YQ34B9OaqeDMS3K-ixbD-26" vertex="1">
          <mxGeometry y="234" width="140" height="26" as="geometry" />
        </mxCell>
        <mxCell id="YQ34B9OaqeDMS3K-ixbD-45" value="&lt;span style=&quot;text-align: center; text-wrap: nowrap;&quot;&gt;Methods&lt;/span&gt;" style="text;strokeColor=default;fillColor=none;align=left;verticalAlign=top;spacingLeft=4;spacingRight=4;overflow=hidden;rotatable=0;points=[[0,0.5],[1,0.5]];portConstraint=eastwest;whiteSpace=wrap;html=1;" parent="YQ34B9OaqeDMS3K-ixbD-26" vertex="1">
          <mxGeometry y="260" width="140" height="26" as="geometry" />
        </mxCell>
        <mxCell id="YQ34B9OaqeDMS3K-ixbD-47" value="&lt;span style=&quot;text-align: center; text-wrap: nowrap;&quot;&gt;delete()&lt;/span&gt;" style="text;strokeColor=none;fillColor=none;align=left;verticalAlign=top;spacingLeft=4;spacingRight=4;overflow=hidden;rotatable=0;points=[[0,0.5],[1,0.5]];portConstraint=eastwest;whiteSpace=wrap;html=1;" parent="YQ34B9OaqeDMS3K-ixbD-26" vertex="1">
          <mxGeometry y="286" width="140" height="30" as="geometry" />
        </mxCell>
        <mxCell id="YQ34B9OaqeDMS3K-ixbD-48" value="&lt;span style=&quot;text-align: center; text-wrap: nowrap;&quot;&gt;change_password()&lt;/span&gt;" style="text;strokeColor=none;fillColor=none;align=left;verticalAlign=top;spacingLeft=4;spacingRight=4;overflow=hidden;rotatable=0;points=[[0,0.5],[1,0.5]];portConstraint=eastwest;whiteSpace=wrap;html=1;" parent="YQ34B9OaqeDMS3K-ixbD-26" vertex="1">
          <mxGeometry y="316" width="140" height="30" as="geometry" />
        </mxCell>
        <mxCell id="YQ34B9OaqeDMS3K-ixbD-49" value="&lt;span style=&quot;text-align: center; text-wrap: nowrap;&quot;&gt;change_email()&lt;/span&gt;" style="text;strokeColor=none;fillColor=none;align=left;verticalAlign=top;spacingLeft=4;spacingRight=4;overflow=hidden;rotatable=0;points=[[0,0.5],[1,0.5]];portConstraint=eastwest;whiteSpace=wrap;html=1;" parent="YQ34B9OaqeDMS3K-ixbD-26" vertex="1">
          <mxGeometry y="346" width="140" height="34" as="geometry" />
        </mxCell>
        <mxCell id="RBtQKB-4vC_u4SkSUfMX-11" value="&lt;span style=&quot;font-size: 16px; text-wrap: nowrap;&quot;&gt;Organizer&lt;/span&gt;" style="swimlane;fontStyle=0;childLayout=stackLayout;horizontal=1;startSize=26;fillColor=#e1d5e7;horizontalStack=0;resizeParent=1;resizeParentMax=0;resizeLast=0;collapsible=1;marginBottom=0;whiteSpace=wrap;html=1;strokeColor=#9673a6;" parent="1" vertex="1">
          <mxGeometry x="320" y="40" width="180" height="492" as="geometry" />
        </mxCell>
        <mxCell id="RBtQKB-4vC_u4SkSUfMX-12" value="&lt;span style=&quot;text-wrap: nowrap;&quot;&gt;Settings&lt;/span&gt;" style="text;strokeColor=default;fillColor=none;align=center;verticalAlign=top;spacingLeft=4;spacingRight=4;overflow=hidden;rotatable=0;points=[[0,0.5],[1,0.5]];portConstraint=eastwest;whiteSpace=wrap;html=1;" parent="RBtQKB-4vC_u4SkSUfMX-11" vertex="1">
          <mxGeometry y="26" width="180" height="26" as="geometry" />
        </mxCell>
        <mxCell id="RBtQKB-4vC_u4SkSUfMX-13" value="&lt;span style=&quot;text-align: center; text-wrap: nowrap;&quot;&gt;id: int&lt;/span&gt;" style="text;strokeColor=none;fillColor=none;align=left;verticalAlign=top;spacingLeft=4;spacingRight=4;overflow=hidden;rotatable=0;points=[[0,0.5],[1,0.5]];portConstraint=eastwest;whiteSpace=wrap;html=1;" parent="RBtQKB-4vC_u4SkSUfMX-11" vertex="1">
          <mxGeometry y="52" width="180" height="26" as="geometry" />
        </mxCell>
        <mxCell id="RBtQKB-4vC_u4SkSUfMX-14" value="&lt;span style=&quot;text-align: center; text-wrap: nowrap;&quot;&gt;name: str&lt;/span&gt;" style="text;strokeColor=none;fillColor=none;align=left;verticalAlign=top;spacingLeft=4;spacingRight=4;overflow=hidden;rotatable=0;points=[[0,0.5],[1,0.5]];portConstraint=eastwest;whiteSpace=wrap;html=1;" parent="RBtQKB-4vC_u4SkSUfMX-11" vertex="1">
          <mxGeometry y="78" width="180" height="26" as="geometry" />
        </mxCell>
        <mxCell id="RBtQKB-4vC_u4SkSUfMX-15" value="&lt;span style=&quot;text-align: center; text-wrap: nowrap;&quot;&gt;surname: str&lt;/span&gt;" style="text;strokeColor=none;fillColor=none;align=left;verticalAlign=top;spacingLeft=4;spacingRight=4;overflow=hidden;rotatable=0;points=[[0,0.5],[1,0.5]];portConstraint=eastwest;whiteSpace=wrap;html=1;" parent="RBtQKB-4vC_u4SkSUfMX-11" vertex="1">
          <mxGeometry y="104" width="180" height="26" as="geometry" />
        </mxCell>
        <mxCell id="RBtQKB-4vC_u4SkSUfMX-16" value="&lt;span style=&quot;text-align: center; text-wrap: nowrap;&quot;&gt;email: str&lt;/span&gt;" style="text;strokeColor=none;fillColor=none;align=left;verticalAlign=top;spacingLeft=4;spacingRight=4;overflow=hidden;rotatable=0;points=[[0,0.5],[1,0.5]];portConstraint=eastwest;whiteSpace=wrap;html=1;" parent="RBtQKB-4vC_u4SkSUfMX-11" vertex="1">
          <mxGeometry y="130" width="180" height="26" as="geometry" />
        </mxCell>
        <mxCell id="RBtQKB-4vC_u4SkSUfMX-17" value="&lt;span style=&quot;text-align: center; text-wrap: nowrap;&quot;&gt;login: str&lt;/span&gt;" style="text;strokeColor=none;fillColor=none;align=left;verticalAlign=top;spacingLeft=4;spacingRight=4;overflow=hidden;rotatable=0;points=[[0,0.5],[1,0.5]];portConstraint=eastwest;whiteSpace=wrap;html=1;" parent="RBtQKB-4vC_u4SkSUfMX-11" vertex="1">
          <mxGeometry y="156" width="180" height="26" as="geometry" />
        </mxCell>
        <mxCell id="RBtQKB-4vC_u4SkSUfMX-18" value="&lt;span style=&quot;text-align: center; text-wrap: nowrap;&quot;&gt;age: int&lt;/span&gt;" style="text;strokeColor=none;fillColor=none;align=left;verticalAlign=top;spacingLeft=4;spacingRight=4;overflow=hidden;rotatable=0;points=[[0,0.5],[1,0.5]];portConstraint=eastwest;whiteSpace=wrap;html=1;" parent="RBtQKB-4vC_u4SkSUfMX-11" vertex="1">
          <mxGeometry y="182" width="180" height="26" as="geometry" />
        </mxCell>
        <mxCell id="RBtQKB-4vC_u4SkSUfMX-19" value="&lt;span style=&quot;text-align: center; text-wrap: nowrap;&quot;&gt;role: str&lt;/span&gt;" style="text;strokeColor=none;fillColor=none;align=left;verticalAlign=top;spacingLeft=4;spacingRight=4;overflow=hidden;rotatable=0;points=[[0,0.5],[1,0.5]];portConstraint=eastwest;whiteSpace=wrap;html=1;" parent="RBtQKB-4vC_u4SkSUfMX-11" vertex="1">
          <mxGeometry y="208" width="180" height="26" as="geometry" />
        </mxCell>
        <mxCell id="RBtQKB-4vC_u4SkSUfMX-20" value="&lt;span style=&quot;text-align: center; text-wrap: nowrap;&quot;&gt;password: str&lt;/span&gt;" style="text;strokeColor=none;fillColor=none;align=left;verticalAlign=top;spacingLeft=4;spacingRight=4;overflow=hidden;rotatable=0;points=[[0,0.5],[1,0.5]];portConstraint=eastwest;whiteSpace=wrap;html=1;" parent="RBtQKB-4vC_u4SkSUfMX-11" vertex="1">
          <mxGeometry y="234" width="180" height="26" as="geometry" />
        </mxCell>
        <mxCell id="RBtQKB-4vC_u4SkSUfMX-27" value="&lt;span style=&quot;text-align: center; text-wrap: nowrap;&quot;&gt;phone_number: int&lt;/span&gt;" style="text;strokeColor=none;fillColor=none;align=left;verticalAlign=top;spacingLeft=4;spacingRight=4;overflow=hidden;rotatable=0;points=[[0,0.5],[1,0.5]];portConstraint=eastwest;whiteSpace=wrap;html=1;" parent="RBtQKB-4vC_u4SkSUfMX-11" vertex="1">
          <mxGeometry y="260" width="180" height="26" as="geometry" />
        </mxCell>
        <mxCell id="RBtQKB-4vC_u4SkSUfMX-32" value="&lt;span style=&quot;text-align: center; text-wrap: nowrap;&quot;&gt;events_list: dict&lt;/span&gt;" style="text;strokeColor=none;fillColor=none;align=left;verticalAlign=top;spacingLeft=4;spacingRight=4;overflow=hidden;rotatable=0;points=[[0,0.5],[1,0.5]];portConstraint=eastwest;whiteSpace=wrap;html=1;" parent="RBtQKB-4vC_u4SkSUfMX-11" vertex="1">
          <mxGeometry y="286" width="180" height="26" as="geometry" />
        </mxCell>
        <mxCell id="RBtQKB-4vC_u4SkSUfMX-21" value="&lt;span style=&quot;text-align: center; text-wrap: nowrap;&quot;&gt;Methods&lt;/span&gt;" style="text;strokeColor=default;fillColor=none;align=left;verticalAlign=top;spacingLeft=4;spacingRight=4;overflow=hidden;rotatable=0;points=[[0,0.5],[1,0.5]];portConstraint=eastwest;whiteSpace=wrap;html=1;" parent="RBtQKB-4vC_u4SkSUfMX-11" vertex="1">
          <mxGeometry y="312" width="180" height="26" as="geometry" />
        </mxCell>
        <mxCell id="RBtQKB-4vC_u4SkSUfMX-23" value="&lt;span style=&quot;text-align: center; text-wrap: nowrap;&quot;&gt;delete()&lt;/span&gt;" style="text;strokeColor=none;fillColor=none;align=left;verticalAlign=top;spacingLeft=4;spacingRight=4;overflow=hidden;rotatable=0;points=[[0,0.5],[1,0.5]];portConstraint=eastwest;whiteSpace=wrap;html=1;" parent="RBtQKB-4vC_u4SkSUfMX-11" vertex="1">
          <mxGeometry y="338" width="180" height="30" as="geometry" />
        </mxCell>
        <mxCell id="RBtQKB-4vC_u4SkSUfMX-24" value="&lt;span style=&quot;text-align: center; text-wrap: nowrap;&quot;&gt;change_password()&lt;/span&gt;" style="text;strokeColor=none;fillColor=none;align=left;verticalAlign=top;spacingLeft=4;spacingRight=4;overflow=hidden;rotatable=0;points=[[0,0.5],[1,0.5]];portConstraint=eastwest;whiteSpace=wrap;html=1;" parent="RBtQKB-4vC_u4SkSUfMX-11" vertex="1">
          <mxGeometry y="368" width="180" height="30" as="geometry" />
        </mxCell>
        <mxCell id="RBtQKB-4vC_u4SkSUfMX-25" value="&lt;span style=&quot;text-align: center; text-wrap: nowrap;&quot;&gt;change_email()&lt;/span&gt;" style="text;strokeColor=none;fillColor=none;align=left;verticalAlign=top;spacingLeft=4;spacingRight=4;overflow=hidden;rotatable=0;points=[[0,0.5],[1,0.5]];portConstraint=eastwest;whiteSpace=wrap;html=1;" parent="RBtQKB-4vC_u4SkSUfMX-11" vertex="1">
          <mxGeometry y="398" width="180" height="40" as="geometry" />
        </mxCell>
        <mxCell id="RBtQKB-4vC_u4SkSUfMX-30" value="&lt;span style=&quot;text-align: center; text-wrap: nowrap;&quot;&gt;change_phone(&lt;/span&gt;&lt;div&gt;&lt;span style=&quot;text-align: center; text-wrap: nowrap;&quot;&gt;new_phone_number) -&amp;gt; None&lt;/span&gt;&lt;/div&gt;" style="text;strokeColor=none;fillColor=none;align=left;verticalAlign=top;spacingLeft=4;spacingRight=4;overflow=hidden;rotatable=0;points=[[0,0.5],[1,0.5]];portConstraint=eastwest;whiteSpace=wrap;html=1;" parent="RBtQKB-4vC_u4SkSUfMX-11" vertex="1">
          <mxGeometry y="438" width="180" height="40" as="geometry" />
        </mxCell>
        <mxCell id="RBtQKB-4vC_u4SkSUfMX-31" value="&lt;div&gt;&lt;span style=&quot;text-align: center; text-wrap: nowrap; background-color: initial;&quot;&gt;&lt;br&gt;&lt;/span&gt;&lt;/div&gt;" style="text;strokeColor=none;fillColor=none;align=left;verticalAlign=top;spacingLeft=4;spacingRight=4;overflow=hidden;rotatable=0;points=[[0,0.5],[1,0.5]];portConstraint=eastwest;whiteSpace=wrap;html=1;" parent="RBtQKB-4vC_u4SkSUfMX-11" vertex="1">
          <mxGeometry y="478" width="180" height="14" as="geometry" />
        </mxCell>
        <mxCell id="O8rMV-qlRNvzGn29aiG8-2" value="" style="edgeStyle=elbowEdgeStyle;elbow=horizontal;endArrow=classic;html=1;curved=0;rounded=0;endSize=8;startSize=8;exitX=0;exitY=0.5;exitDx=0;exitDy=0;entryX=1.012;entryY=0.366;entryDx=0;entryDy=0;entryPerimeter=0;" edge="1" parent="1" source="RBtQKB-4vC_u4SkSUfMX-32" target="YQ34B9OaqeDMS3K-ixbD-40">
          <mxGeometry width="50" height="50" relative="1" as="geometry">
            <mxPoint x="680" y="230" as="sourcePoint" />
            <mxPoint x="730" y="180" as="targetPoint" />
          </mxGeometry>
        </mxCell>
      </root>
    </mxGraphModel>
  </diagram>
</mxfile>
